<?xml version="1.0" encoding="UTF-8"?>
<svg xmlns="http://www.w3.org/2000/svg" xmlns:xlink="http://www.w3.org/1999/xlink" width="48px" height="48px" viewBox="0 0 48 48" version="1.1">
<g id="surface1">
<path style=" stroke:none;fill-rule:nonzero;fill:rgb(0%,0%,0%);fill-opacity:1;" d="M 22.078125 1.921875 C 18.695312 2.183594 14.160156 3.71875 12.167969 5.28125 C 11.160156 6.070312 11.398438 7.441406 12.550781 7.441406 C 12.792969 7.441406 13.992188 6.960938 15.191406 6.359375 C 18.601562 4.679688 20.761719 4.222656 24.71875 4.390625 C 27.167969 4.464844 28.367188 4.632812 29.640625 5.039062 C 36.167969 7.128906 40.871094 11.832031 42.960938 18.359375 C 43.367188 19.632812 43.535156 20.832031 43.609375 23.28125 C 43.777344 27.289062 43.320312 29.425781 41.59375 32.878906 L 40.464844 35.160156 L 40.199219 33.695312 C 39.839844 31.558594 39.023438 30.863281 38.015625 31.847656 C 37.585938 32.28125 37.609375 32.976562 38.183594 36.792969 C 38.566406 39.40625 38.664062 39.457031 42.40625 38.902344 C 44.015625 38.6875 45.503906 38.351562 45.695312 38.183594 C 46.246094 37.726562 46.175781 36.816406 45.574219 36.382812 C 45.070312 36.046875 44.664062 36.046875 43.007812 36.382812 C 42.457031 36.503906 42.480469 36.457031 43.296875 34.992188 C 45.238281 31.488281 46.128906 28.078125 46.128906 24 C 46.128906 19.726562 45.144531 16.152344 42.9375 12.40625 C 41.664062 10.199219 37.679688 6.214844 35.519531 4.96875 C 31.390625 2.59375 26.878906 1.558594 22.078125 1.921875 Z M 22.078125 1.921875 "/>
<path style=" stroke:none;fill-rule:nonzero;fill:rgb(0%,0%,0%);fill-opacity:1;" d="M 5.449219 9.121094 C 3.886719 9.359375 2.472656 9.695312 2.28125 9.839844 C 1.777344 10.273438 1.824219 11.449219 2.375 11.734375 C 2.640625 11.902344 3.289062 11.902344 4.105469 11.785156 C 4.824219 11.664062 5.425781 11.59375 5.472656 11.640625 C 5.519531 11.664062 5.207031 12.214844 4.800781 12.863281 C 1.558594 18 0.984375 25.945312 3.40625 32.257812 C 5.953125 38.832031 12.433594 44.257812 19.488281 45.695312 C 21.863281 46.199219 26.136719 46.199219 28.511719 45.695312 C 31.679688 45.046875 35.878906 43.105469 36.433594 42.070312 C 36.742188 41.496094 36.40625 40.65625 35.808594 40.511719 C 35.542969 40.441406 34.367188 40.871094 32.976562 41.542969 C 29.398438 43.320312 27.289062 43.777344 23.28125 43.609375 C 20.832031 43.535156 19.632812 43.367188 18.359375 42.960938 C 9.769531 40.222656 4.296875 32.832031 4.296875 24 C 4.296875 20.542969 4.847656 18.265625 6.40625 15.121094 L 7.535156 12.839844 L 7.800781 14.328125 C 8.089844 16.078125 8.566406 16.703125 9.457031 16.464844 C 10.34375 16.246094 10.441406 15.527344 9.984375 12.289062 C 9.648438 10.054688 9.480469 9.382812 9.070312 9.046875 C 8.808594 8.832031 8.519531 8.664062 8.425781 8.664062 C 8.351562 8.6875 7.007812 8.878906 5.449219 9.121094 Z M 5.449219 9.121094 "/>
<path style=" stroke:none;fill-rule:nonzero;fill:rgb(0%,0%,0%);fill-opacity:1;" d="M 14.015625 20.375 C 13.511719 20.6875 12.910156 21.527344 12.144531 23.015625 C 11.257812 24.71875 10.800781 25.34375 10.054688 25.800781 C 8.617188 26.710938 8.832031 28.078125 10.414062 28.078125 C 11.785156 28.078125 12.527344 27.359375 13.894531 24.742188 C 14.953125 22.777344 15.289062 22.320312 15.71875 22.320312 C 16.152344 22.320312 16.488281 22.777344 17.542969 24.742188 C 18.960938 27.457031 19.65625 28.078125 21.238281 28.078125 C 22.824219 28.078125 23.519531 27.457031 24.9375 24.742188 C 26.664062 21.457031 26.902344 21.480469 28.800781 25.175781 C 29.976562 27.433594 30.742188 28.078125 32.28125 28.078125 C 33.863281 28.078125 34.558594 27.457031 35.953125 24.816406 C 36.9375 22.945312 37.367188 22.367188 37.992188 22.078125 C 39.359375 21.433594 39.070312 19.921875 37.585938 19.921875 C 36.265625 19.921875 35.449219 20.664062 34.320312 22.824219 C 32.425781 26.519531 32.183594 26.542969 30.457031 23.257812 C 29.039062 20.542969 28.34375 19.921875 26.761719 19.921875 C 25.222656 19.921875 24.457031 20.566406 23.28125 22.824219 C 21.382812 26.519531 21.144531 26.542969 19.414062 23.257812 C 18 20.542969 17.304688 19.921875 15.71875 19.921875 C 15.191406 19.921875 14.425781 20.136719 14.015625 20.375 Z M 14.015625 20.375 "/>
</g>
</svg>
