<?xml version="1.0" encoding="UTF-8"?>
<svg xmlns="http://www.w3.org/2000/svg" xmlns:xlink="http://www.w3.org/1999/xlink" width="48px" height="48px" viewBox="0 0 48 48" version="1.1">
<g id="surface1">
<path style=" stroke:none;fill-rule:nonzero;fill:rgb(0%,0%,0%);fill-opacity:1;" d="M 5.84375 0.0664062 L 2.1875 0.0976562 L 1.730469 0.34375 C 0.960938 0.75 0.640625 1.089844 0.203125 1.933594 C 0.078125 2.183594 0.0703125 2.402344 0.0273438 9.628906 L -0.0195312 17.070312 L 5.8125 17.070312 L 5.8125 13.464844 C 5.816406 9.765625 5.863281 8.449219 6.011719 7.949219 C 6.125 7.582031 6.84375 6.808594 7.222656 6.636719 C 7.679688 6.4375 8.800781 6.382812 13.042969 6.382812 L 17.105469 6.382812 L 17.09375 3.207031 L 17.074219 0.03125 L 13.285156 0.03125 C 11.203125 0.0273438 7.855469 0.046875 5.84375 0.0664062 Z M 5.84375 0.0664062 "/>
<path style=" stroke:none;fill-rule:nonzero;fill:rgb(0%,0%,0%);fill-opacity:1;" d="M 19.632812 0.046875 C 19.605469 0.0664062 19.585938 1.472656 19.585938 3.167969 C 19.585938 6.527344 19.546875 7.074219 19.273438 7.582031 C 19.0625 7.96875 18.546875 8.4375 18.066406 8.683594 L 17.710938 8.859375 L 13.03125 8.90625 L 8.355469 8.945312 L 8.355469 12.695312 C 8.351562 16.46875 8.316406 17.441406 8.15625 17.980469 C 8.035156 18.363281 7.351562 19.089844 6.894531 19.316406 C 6.425781 19.542969 5.503906 19.601562 2.46875 19.609375 L 0 19.609375 L 0 28.417969 L 10.269531 28.382812 C 17.792969 28.363281 20.597656 28.339844 20.769531 28.28125 C 21.082031 28.183594 21.722656 27.628906 23.117188 26.246094 C 24.527344 24.847656 25.042969 24.261719 25.136719 23.910156 C 25.175781 23.765625 25.234375 22.90625 25.265625 22 C 25.332031 20.144531 25.378906 19.890625 25.816406 18.988281 C 26.054688 18.5 26.238281 18.253906 26.917969 17.523438 C 27.363281 17.042969 27.949219 16.4375 28.210938 16.183594 C 28.480469 15.933594 29.171875 15.269531 29.746094 14.714844 C 31.4375 13.09375 31.945312 12.828125 33.636719 12.703125 C 34.152344 12.671875 35.738281 12.636719 37.167969 12.636719 L 39.761719 12.636719 L 39.761719 0 L 30.960938 0 L 30.933594 2.878906 C 30.902344 6 30.894531 6.078125 30.515625 6.898438 C 30.203125 7.597656 29.464844 8.378906 23.777344 14.078125 L 20.8125 17.050781 L 20.949219 17.316406 C 21.160156 17.726562 21.402344 18.625 21.445312 19.191406 C 21.53125 20.164062 21.265625 21.304688 20.75 22.183594 C 20.414062 22.742188 19.621094 23.550781 19.097656 23.855469 C 17.191406 24.964844 15.101562 24.851562 13.417969 23.5625 C 11.511719 22.105469 10.890625 19.667969 11.875 17.5 C 12.699219 15.6875 14.449219 14.578125 16.484375 14.574219 C 17.273438 14.574219 17.738281 14.671875 18.535156 14.996094 L 19.011719 15.199219 L 21.6875 12.535156 C 25.019531 9.21875 27.964844 6.1875 28.191406 5.84375 L 28.367188 5.578125 L 28.40625 0 L 24.039062 0 C 21.636719 0 19.652344 0.0195312 19.632812 0.046875 Z M 19.632812 0.046875 "/>
<path style=" stroke:none;fill-rule:nonzero;fill:rgb(0%,0%,0%);fill-opacity:1;" d="M 42.292969 6.65625 L 42.273438 13.324219 L 42.097656 13.695312 C 41.894531 14.128906 41.414062 14.664062 41.019531 14.898438 C 40.640625 15.121094 40.042969 15.160156 36.378906 15.207031 C 34.792969 15.230469 33.34375 15.277344 33.152344 15.308594 C 32.964844 15.347656 32.695312 15.460938 32.554688 15.558594 C 32.1875 15.796875 28.558594 19.425781 28.210938 19.882812 C 27.871094 20.339844 27.84375 20.507812 27.746094 22.671875 C 27.664062 24.730469 27.558594 25.101562 26.78125 26.066406 C 26.273438 26.695312 23.191406 29.734375 22.667969 30.117188 C 22.445312 30.28125 22.023438 30.507812 21.722656 30.625 L 21.1875 30.839844 L 18.148438 30.886719 C 16.480469 30.910156 11.710938 30.929688 7.558594 30.9375 L 0 30.945312 L 0 39.746094 L 5.113281 39.71875 C 10.5 39.695312 10.578125 39.6875 11.152344 39.386719 C 11.261719 39.328125 11.765625 38.898438 12.253906 38.429688 C 13.519531 37.230469 14.050781 36.90625 15.03125 36.742188 C 15.257812 36.703125 16.96875 36.65625 18.84375 36.632812 L 22.25 36.59375 L 22.464844 36.105469 C 23.640625 33.441406 26.253906 32.234375 28.871094 33.152344 C 29.621094 33.421875 30.066406 33.714844 30.757812 34.398438 C 31.28125 34.917969 31.429688 35.113281 31.679688 35.617188 C 32.101562 36.449219 32.207031 36.996094 32.175781 38.066406 C 32.148438 38.8125 32.121094 38.996094 31.945312 39.5 C 31.683594 40.246094 31.410156 40.691406 30.828125 41.308594 C 29.746094 42.460938 28.183594 43.042969 26.617188 42.867188 C 24.757812 42.652344 23.289062 41.523438 22.492188 39.699219 L 22.269531 39.1875 L 19.640625 39.167969 C 18.1875 39.160156 16.601562 39.179688 16.113281 39.207031 C 15.03125 39.277344 15.113281 39.230469 13.777344 40.449219 C 12.691406 41.433594 12.3125 41.707031 11.628906 41.972656 C 11.175781 42.148438 11.027344 42.175781 10.023438 42.222656 C 9.414062 42.246094 6.90625 42.273438 4.460938 42.273438 L 0 42.28125 L 0 43.628906 C 0 45.246094 0.0664062 45.757812 0.328125 46.292969 C 0.59375 46.839844 1.226562 47.433594 1.855469 47.71875 L 2.34375 47.949219 L 39.765625 47.949219 L 39.746094 43.597656 C 39.734375 40.167969 39.707031 39.21875 39.644531 39.101562 C 39.511719 38.871094 38.839844 38.109375 37.917969 37.148438 C 36.941406 36.125 36.546875 35.578125 36.332031 34.9375 C 36.097656 34.246094 36.039062 33.453125 36.039062 31.074219 L 36.039062 28.925781 L 35.796875 28.820312 C 34.589844 28.320312 33.871094 27.8125 33.308594 27.0625 C 32.488281 25.96875 32.15625 24.742188 32.316406 23.367188 C 32.453125 22.207031 32.910156 21.289062 33.785156 20.417969 C 34.601562 19.609375 35.535156 19.152344 36.671875 19.015625 C 39.160156 18.714844 41.359375 20.164062 42.125 22.605469 C 42.25 23.023438 42.273438 23.230469 42.273438 24.007812 C 42.273438 25.035156 42.164062 25.53125 41.738281 26.324219 C 41.171875 27.421875 40.027344 28.402344 38.929688 28.761719 L 38.585938 28.871094 L 38.585938 31.226562 C 38.585938 32.519531 38.613281 33.695312 38.644531 33.832031 C 38.730469 34.195312 38.917969 34.4375 40.152344 35.757812 C 41.398438 37.101562 41.511719 37.238281 41.949219 38.109375 L 42.261719 38.730469 L 42.292969 43.363281 L 42.328125 47.988281 L 44.0625 47.960938 L 45.800781 47.933594 L 46.25 47.695312 C 46.898438 47.355469 47.378906 46.886719 47.710938 46.28125 L 47.988281 45.777344 L 47.988281 2.234375 L 47.746094 1.792969 C 47.394531 1.160156 46.902344 0.652344 46.359375 0.363281 C 45.964844 0.15625 45.832031 0.125 45.171875 0.0664062 C 44.761719 0.03125 43.953125 0 43.371094 0 L 42.3125 0 Z M 42.292969 6.65625 "/>
<path style=" stroke:none;fill-rule:nonzero;fill:rgb(0%,0%,0%);fill-opacity:1;" d="M 15.765625 17.1875 C 15.023438 17.441406 14.472656 17.894531 14.195312 18.496094 C 13.699219 19.539062 13.894531 20.578125 14.734375 21.375 C 15.519531 22.117188 16.636719 22.285156 17.589844 21.8125 C 17.960938 21.621094 18.4375 21.113281 18.679688 20.644531 C 18.882812 20.253906 18.894531 20.183594 18.902344 19.578125 C 18.902344 19.035156 18.875 18.871094 18.75 18.605469 C 18.207031 17.433594 16.882812 16.800781 15.765625 17.1875 Z M 15.765625 17.1875 "/>
<path style=" stroke:none;fill-rule:nonzero;fill:rgb(0%,0%,0%);fill-opacity:1;" d="M 36.449219 21.621094 C 35.066406 22.136719 34.414062 23.785156 35.074219 25.132812 C 35.28125 25.570312 35.773438 26.03125 36.289062 26.273438 C 36.679688 26.460938 36.789062 26.480469 37.3125 26.480469 C 37.847656 26.480469 37.945312 26.460938 38.335938 26.265625 C 38.847656 26.019531 39.277344 25.578125 39.546875 25.03125 C 39.707031 24.695312 39.726562 24.59375 39.726562 23.972656 C 39.726562 23.355469 39.707031 23.25 39.546875 22.917969 C 39.289062 22.402344 38.867188 21.988281 38.335938 21.738281 C 37.769531 21.472656 36.980469 21.425781 36.449219 21.621094 Z M 36.449219 21.621094 "/>
<path style=" stroke:none;fill-rule:nonzero;fill:rgb(0%,0%,0%);fill-opacity:1;" d="M 26.390625 35.503906 C 25.925781 35.667969 25.660156 35.84375 25.34375 36.183594 C 25.003906 36.554688 24.84375 36.871094 24.746094 37.382812 C 24.523438 38.476562 25.011719 39.511719 26.015625 40.105469 C 26.332031 40.285156 26.375 40.292969 27.160156 40.292969 C 28.140625 40.292969 28.300781 40.234375 28.898438 39.640625 C 29.472656 39.074219 29.660156 38.671875 29.660156 38.011719 C 29.667969 37.386719 29.472656 36.742188 29.15625 36.332031 C 28.570312 35.558594 27.296875 35.179688 26.390625 35.503906 Z M 26.390625 35.503906 "/>
</g>
</svg>
